<mxfile host="app.diagrams.net" modified="2023-06-13T00:16:29.041Z" agent="Mozilla/5.0 (Windows NT 10.0; Win64; x64) AppleWebKit/537.36 (KHTML, like Gecko) Chrome/114.0.0.0 Safari/537.36 Edg/114.0.1823.37" etag="8YBuQL3gpZ3LGJ_zikpo" version="21.3.8" type="device">
  <diagram name="PÃ¡gina-1" id="aAZpk_fTZfRfJQzMky5m">
    <mxGraphModel dx="899" dy="559" grid="1" gridSize="10" guides="1" tooltips="1" connect="1" arrows="1" fold="1" page="1" pageScale="1" pageWidth="827" pageHeight="1169" math="0" shadow="0">
      <root>
        <mxCell id="0" />
        <mxCell id="1" parent="0" />
        <mxCell id="grsZwdMOKD7EH8BZTg2s-8" style="edgeStyle=orthogonalEdgeStyle;rounded=0;orthogonalLoop=1;jettySize=auto;html=1;exitX=1;exitY=0.5;exitDx=0;exitDy=0;entryX=0;entryY=0.5;entryDx=0;entryDy=0;endArrow=baseDash;endFill=0;startArrow=ERmany;startFill=0;" edge="1" parent="1" source="grsZwdMOKD7EH8BZTg2s-1" target="grsZwdMOKD7EH8BZTg2s-5">
          <mxGeometry relative="1" as="geometry" />
        </mxCell>
        <mxCell id="grsZwdMOKD7EH8BZTg2s-13" style="edgeStyle=orthogonalEdgeStyle;rounded=0;orthogonalLoop=1;jettySize=auto;html=1;exitX=0.25;exitY=1;exitDx=0;exitDy=0;entryX=0.5;entryY=0;entryDx=0;entryDy=0;startArrow=ERmany;startFill=0;endArrow=ERmany;endFill=0;" edge="1" parent="1" source="grsZwdMOKD7EH8BZTg2s-1" target="grsZwdMOKD7EH8BZTg2s-3">
          <mxGeometry relative="1" as="geometry" />
        </mxCell>
        <mxCell id="grsZwdMOKD7EH8BZTg2s-1" value="FatoAvaliacao" style="swimlane;" vertex="1" parent="1">
          <mxGeometry x="310" y="200" width="231" height="130" as="geometry" />
        </mxCell>
        <mxCell id="grsZwdMOKD7EH8BZTg2s-23" value="+IdFatoAvaliacao&lt;br style=&quot;border-color: var(--border-color);&quot;&gt;&lt;span style=&quot;&quot;&gt;+Matricula&lt;/span&gt;&lt;br style=&quot;border-color: var(--border-color);&quot;&gt;&lt;span style=&quot;&quot;&gt;+IdProfessor&lt;/span&gt;&lt;br style=&quot;border-color: var(--border-color);&quot;&gt;&lt;span style=&quot;&quot;&gt;+IdNota&lt;/span&gt;" style="text;html=1;align=left;verticalAlign=middle;resizable=0;points=[];autosize=1;strokeColor=none;fillColor=none;" vertex="1" parent="grsZwdMOKD7EH8BZTg2s-1">
          <mxGeometry x="10" y="30" width="120" height="70" as="geometry" />
        </mxCell>
        <mxCell id="grsZwdMOKD7EH8BZTg2s-14" style="edgeStyle=orthogonalEdgeStyle;rounded=0;orthogonalLoop=1;jettySize=auto;html=1;entryX=0.5;entryY=0;entryDx=0;entryDy=0;startArrow=ERone;startFill=0;endArrow=ERone;endFill=0;" edge="1" parent="1" source="grsZwdMOKD7EH8BZTg2s-2" target="grsZwdMOKD7EH8BZTg2s-5">
          <mxGeometry relative="1" as="geometry">
            <Array as="points">
              <mxPoint x="125" y="180" />
              <mxPoint x="716" y="180" />
            </Array>
          </mxGeometry>
        </mxCell>
        <mxCell id="grsZwdMOKD7EH8BZTg2s-15" value="" style="edgeStyle=orthogonalEdgeStyle;rounded=0;orthogonalLoop=1;jettySize=auto;html=1;startArrow=ERone;startFill=0;endArrow=ERone;endFill=0;" edge="1" parent="1" source="grsZwdMOKD7EH8BZTg2s-2" target="grsZwdMOKD7EH8BZTg2s-4">
          <mxGeometry relative="1" as="geometry">
            <Array as="points">
              <mxPoint x="125" y="370" />
              <mxPoint x="626" y="370" />
            </Array>
          </mxGeometry>
        </mxCell>
        <mxCell id="grsZwdMOKD7EH8BZTg2s-2" value="DimEndereco" style="swimlane;" vertex="1" parent="1">
          <mxGeometry x="20" y="200" width="210" height="130" as="geometry" />
        </mxCell>
        <mxCell id="grsZwdMOKD7EH8BZTg2s-16" value="+Cep&lt;br&gt;+Logradouro&lt;br&gt;+Estado&lt;br&gt;+Pais&lt;br&gt;+Numero" style="text;html=1;align=left;verticalAlign=middle;resizable=0;points=[];autosize=1;strokeColor=none;fillColor=none;" vertex="1" parent="grsZwdMOKD7EH8BZTg2s-2">
          <mxGeometry x="10" y="20" width="90" height="90" as="geometry" />
        </mxCell>
        <mxCell id="grsZwdMOKD7EH8BZTg2s-12" style="edgeStyle=orthogonalEdgeStyle;rounded=0;orthogonalLoop=1;jettySize=auto;html=1;exitX=1;exitY=0.5;exitDx=0;exitDy=0;entryX=-0.012;entryY=0.286;entryDx=0;entryDy=0;entryPerimeter=0;startArrow=ERmany;startFill=0;endArrow=ERone;endFill=0;" edge="1" parent="1" source="grsZwdMOKD7EH8BZTg2s-3" target="grsZwdMOKD7EH8BZTg2s-10">
          <mxGeometry relative="1" as="geometry">
            <Array as="points">
              <mxPoint x="509" y="470" />
            </Array>
          </mxGeometry>
        </mxCell>
        <mxCell id="grsZwdMOKD7EH8BZTg2s-3" value="FatoNota" style="swimlane;" vertex="1" parent="1">
          <mxGeometry x="110" y="400" width="241" height="140" as="geometry" />
        </mxCell>
        <mxCell id="grsZwdMOKD7EH8BZTg2s-11" value="+IdNota&lt;br&gt;+Aluno&lt;br&gt;+Professor" style="text;html=1;align=center;verticalAlign=middle;resizable=0;points=[];autosize=1;strokeColor=none;fillColor=none;" vertex="1" parent="grsZwdMOKD7EH8BZTg2s-3">
          <mxGeometry x="-5" y="30" width="80" height="60" as="geometry" />
        </mxCell>
        <mxCell id="grsZwdMOKD7EH8BZTg2s-5" value="DimProfessor" style="swimlane;" vertex="1" parent="1">
          <mxGeometry x="600" y="200" width="231" height="130" as="geometry" />
        </mxCell>
        <mxCell id="grsZwdMOKD7EH8BZTg2s-18" value="+IdProfessor&lt;br&gt;+Nome&lt;br&gt;+Endereco" style="text;html=1;align=left;verticalAlign=middle;resizable=0;points=[];autosize=1;strokeColor=none;fillColor=none;" vertex="1" parent="grsZwdMOKD7EH8BZTg2s-5">
          <mxGeometry x="10" y="30" width="90" height="60" as="geometry" />
        </mxCell>
        <mxCell id="grsZwdMOKD7EH8BZTg2s-4" value="DimAluno" style="swimlane;startSize=23;" vertex="1" parent="1">
          <mxGeometry x="510" y="420" width="231" height="130" as="geometry" />
        </mxCell>
        <mxCell id="grsZwdMOKD7EH8BZTg2s-10" value="+Matricula&lt;br&gt;+Nome&lt;br&gt;+Endereco&lt;br&gt;" style="text;html=1;align=left;verticalAlign=middle;resizable=0;points=[];autosize=1;strokeColor=none;fillColor=none;" vertex="1" parent="grsZwdMOKD7EH8BZTg2s-4">
          <mxGeometry y="35" width="80" height="60" as="geometry" />
        </mxCell>
        <mxCell id="grsZwdMOKD7EH8BZTg2s-20" style="edgeStyle=orthogonalEdgeStyle;rounded=0;orthogonalLoop=1;jettySize=auto;html=1;entryX=0.75;entryY=0;entryDx=0;entryDy=0;startArrow=ERmany;startFill=0;endArrow=ERone;endFill=0;" edge="1" parent="1" source="grsZwdMOKD7EH8BZTg2s-19" target="grsZwdMOKD7EH8BZTg2s-5">
          <mxGeometry relative="1" as="geometry">
            <Array as="points">
              <mxPoint x="730" y="85" />
              <mxPoint x="730" y="200" />
            </Array>
          </mxGeometry>
        </mxCell>
        <mxCell id="grsZwdMOKD7EH8BZTg2s-22" style="edgeStyle=orthogonalEdgeStyle;rounded=0;orthogonalLoop=1;jettySize=auto;html=1;exitX=1;exitY=0.5;exitDx=0;exitDy=0;startArrow=ERmany;startFill=0;endArrow=ERone;endFill=0;" edge="1" parent="1" source="grsZwdMOKD7EH8BZTg2s-19">
          <mxGeometry relative="1" as="geometry">
            <mxPoint x="570" y="420" as="targetPoint" />
            <Array as="points">
              <mxPoint x="570" y="85" />
            </Array>
          </mxGeometry>
        </mxCell>
        <mxCell id="grsZwdMOKD7EH8BZTg2s-19" value="FatoNotaFinal" style="swimlane;whiteSpace=wrap;html=1;" vertex="1" parent="1">
          <mxGeometry x="330" y="20" width="200" height="130" as="geometry" />
        </mxCell>
        <mxCell id="grsZwdMOKD7EH8BZTg2s-7" value="+IdNotaFinal&lt;br&gt;+Matricula&lt;br&gt;+IdProfessor&lt;br&gt;+IdNota" style="text;html=1;align=left;verticalAlign=middle;resizable=0;points=[];autosize=1;strokeColor=none;fillColor=none;" vertex="1" parent="grsZwdMOKD7EH8BZTg2s-19">
          <mxGeometry x="14" y="40" width="90" height="70" as="geometry" />
        </mxCell>
        <mxCell id="grsZwdMOKD7EH8BZTg2s-21" style="edgeStyle=orthogonalEdgeStyle;rounded=0;orthogonalLoop=1;jettySize=auto;html=1;entryX=0.61;entryY=-0.014;entryDx=0;entryDy=0;entryPerimeter=0;startArrow=ERone;startFill=0;endArrow=ERmany;endFill=0;exitX=0;exitY=0.5;exitDx=0;exitDy=0;" edge="1" parent="1" source="grsZwdMOKD7EH8BZTg2s-19" target="grsZwdMOKD7EH8BZTg2s-3">
          <mxGeometry relative="1" as="geometry">
            <Array as="points">
              <mxPoint x="330" y="80" />
              <mxPoint x="260" y="80" />
              <mxPoint x="260" y="170" />
              <mxPoint x="257" y="170" />
            </Array>
          </mxGeometry>
        </mxCell>
      </root>
    </mxGraphModel>
  </diagram>
</mxfile>
